<?xml version="1.0" encoding="UTF-8"?>
<svg xmlns="http://www.w3.org/2000/svg" xmlns:xlink="http://www.w3.org/1999/xlink" width="250px" height="132px" viewBox="0 0 38 9" version="1.1">
<defs>
<clipPath id="clip1">
  <path d="M 0.0273438 2.65625 L 11 2.65625 L 11 6.355469 L 0.0273438 6.355469 Z M 0.0273438 2.65625 "/>
</clipPath>
<clipPath id="clip2">
  <path d="M 11 2.65625 L 21 2.65625 L 21 6.355469 L 11 6.355469 Z M 11 2.65625 "/>
</clipPath>
<clipPath id="clip3">
  <path d="M 21 2.65625 L 27.390625 2.65625 L 27.390625 6.355469 L 21 6.355469 Z M 21 2.65625 "/>
</clipPath>
<clipPath id="clip4">
  <path d="M 29.101562 0.00390625 L 37.925781 0.00390625 L 37.925781 9 L 29.101562 9 Z M 29.101562 0.00390625 "/>
</clipPath>
<clipPath id="clip5">
  <path d="M 30.960938 3.203125 L 36.066406 3.203125 L 36.066406 5.808594 L 30.960938 5.808594 Z M 30.960938 3.203125 "/>
</clipPath>
</defs>
<g id="surface1">
<g clip-path="url(#clip1)" clip-rule="nonzero">
<path style=" stroke:none;fill-rule:nonzero;fill:rgb(41.960784%,44.705882%,50.196078%);fill-opacity:1;" d="M 1.003906 6.355469 C 0.679688 6.355469 0.445312 6.273438 0.304688 6.109375 C 0.160156 5.945312 0.0859375 5.683594 0.0859375 5.320312 L 0.0859375 4.964844 L 0.789062 4.964844 L 0.789062 5.417969 C 0.789062 5.597656 0.84375 5.6875 0.957031 5.6875 C 1.019531 5.6875 1.066406 5.667969 1.089844 5.628906 C 1.113281 5.589844 1.128906 5.527344 1.128906 5.4375 C 1.128906 5.320312 1.113281 5.21875 1.085938 5.144531 C 1.058594 5.066406 1.023438 5 0.980469 4.949219 C 0.9375 4.894531 0.859375 4.816406 0.75 4.707031 L 0.445312 4.394531 C 0.207031 4.15625 0.0859375 3.894531 0.0859375 3.605469 C 0.0859375 3.296875 0.15625 3.058594 0.296875 2.898438 C 0.4375 2.734375 0.640625 2.65625 0.90625 2.65625 C 1.226562 2.65625 1.457031 2.742188 1.601562 2.914062 C 1.742188 3.089844 1.8125 3.359375 1.8125 3.730469 L 1.085938 3.730469 L 1.082031 3.480469 C 1.082031 3.429688 1.070312 3.394531 1.042969 3.363281 C 1.015625 3.335938 0.980469 3.324219 0.933594 3.324219 C 0.878906 3.324219 0.835938 3.339844 0.808594 3.371094 C 0.78125 3.398438 0.765625 3.441406 0.765625 3.496094 C 0.765625 3.613281 0.832031 3.738281 0.964844 3.863281 L 1.378906 4.269531 C 1.476562 4.367188 1.558594 4.457031 1.621094 4.542969 C 1.683594 4.628906 1.734375 4.730469 1.773438 4.847656 C 1.8125 4.964844 1.832031 5.101562 1.832031 5.265625 C 1.832031 5.621094 1.769531 5.894531 1.640625 6.078125 C 1.511719 6.261719 1.296875 6.355469 1.003906 6.355469 Z M 2.710938 6.320312 L 2.066406 6.320312 L 2.066406 2.6875 L 3.152344 2.6875 L 3.453125 4.90625 L 3.75 2.6875 L 4.84375 2.6875 L 4.84375 6.320312 L 4.191406 6.320312 L 4.191406 3.703125 L 3.78125 6.320312 L 3.144531 6.320312 L 2.710938 3.703125 Z M 5.753906 6.320312 L 5.0625 6.320312 L 5.40625 2.6875 L 6.613281 2.6875 L 6.953125 6.320312 L 6.277344 6.320312 L 6.226562 5.734375 L 5.796875 5.734375 Z M 5.980469 3.304688 L 5.847656 5.152344 L 6.171875 5.152344 L 6.015625 3.304688 Z M 7.167969 6.320312 L 7.167969 2.6875 L 8.261719 2.6875 C 8.433594 2.6875 8.570312 2.726562 8.664062 2.808594 C 8.757812 2.890625 8.824219 3.003906 8.855469 3.148438 C 8.890625 3.292969 8.90625 3.476562 8.90625 3.703125 C 8.90625 3.910156 8.878906 4.070312 8.828125 4.183594 C 8.773438 4.300781 8.683594 4.382812 8.554688 4.425781 C 8.660156 4.449219 8.738281 4.503906 8.789062 4.589844 C 8.835938 4.679688 8.859375 4.796875 8.859375 4.945312 L 8.851562 6.320312 L 8.15625 6.320312 L 8.15625 4.898438 C 8.15625 4.796875 8.136719 4.734375 8.097656 4.707031 C 8.058594 4.675781 7.988281 4.664062 7.886719 4.664062 L 7.886719 6.320312 Z M 7.890625 4.035156 L 8.0625 4.035156 C 8.160156 4.035156 8.210938 3.921875 8.210938 3.703125 C 8.210938 3.609375 8.207031 3.535156 8.199219 3.488281 C 8.1875 3.441406 8.175781 3.40625 8.152344 3.386719 C 8.128906 3.371094 8.097656 3.359375 8.058594 3.359375 L 7.890625 3.359375 Z M 10.160156 6.320312 L 9.449219 6.320312 L 9.449219 3.386719 L 9.027344 3.386719 L 9.027344 2.6875 L 10.582031 2.6875 L 10.582031 3.386719 L 10.160156 3.386719 Z M 10.160156 6.320312 "/>
</g>
<g clip-path="url(#clip2)" clip-rule="nonzero">
<path style=" stroke:none;fill-rule:nonzero;fill:rgb(59.215686%,59.215686%,55.294118%);fill-opacity:1;" d="M 12.417969 6.320312 L 11.710938 6.320312 L 11.710938 2.6875 L 12.417969 2.6875 L 12.417969 3.988281 L 12.753906 3.988281 L 12.753906 2.6875 L 13.460938 2.6875 L 13.460938 6.320312 L 12.753906 6.320312 L 12.753906 4.671875 L 12.417969 4.671875 Z M 14.625 6.355469 C 14.339844 6.355469 14.121094 6.265625 13.972656 6.085938 C 13.824219 5.90625 13.75 5.65625 13.75 5.332031 L 13.75 3.601562 C 13.75 3.289062 13.824219 3.050781 13.972656 2.894531 C 14.121094 2.734375 14.339844 2.65625 14.625 2.65625 C 14.914062 2.65625 15.132812 2.734375 15.28125 2.894531 C 15.429688 3.050781 15.503906 3.289062 15.503906 3.601562 L 15.503906 5.332031 C 15.503906 5.660156 15.429688 5.910156 15.28125 6.089844 C 15.132812 6.265625 14.914062 6.355469 14.625 6.355469 Z M 14.625 5.6875 C 14.691406 5.6875 14.734375 5.660156 14.753906 5.601562 C 14.777344 5.546875 14.789062 5.46875 14.789062 5.367188 L 14.789062 3.589844 C 14.789062 3.511719 14.777344 3.445312 14.757812 3.394531 C 14.734375 3.347656 14.695312 3.324219 14.628906 3.324219 C 14.511719 3.324219 14.453125 3.414062 14.453125 3.597656 L 14.453125 5.371094 C 14.453125 5.472656 14.464844 5.554688 14.488281 5.605469 C 14.515625 5.660156 14.558594 5.6875 14.625 5.6875 Z M 16.433594 6.320312 L 15.789062 6.320312 L 15.789062 2.6875 L 16.875 2.6875 L 17.171875 4.90625 L 17.472656 2.6875 L 18.566406 2.6875 L 18.566406 6.320312 L 17.914062 6.320312 L 17.914062 3.703125 L 17.503906 6.320312 L 16.867188 6.320312 L 16.433594 3.703125 Z M 20.351562 6.320312 L 18.878906 6.320312 L 18.878906 2.6875 L 20.304688 2.6875 L 20.304688 3.390625 L 19.605469 3.390625 L 19.605469 4.097656 L 20.277344 4.097656 L 20.277344 4.78125 L 19.605469 4.78125 L 19.605469 5.613281 L 20.351562 5.613281 Z M 20.351562 6.320312 "/>
</g>
<g clip-path="url(#clip3)" clip-rule="nonzero">
<path style=" stroke:none;fill-rule:nonzero;fill:rgb(41.960784%,44.705882%,50.196078%);fill-opacity:1;" d="M 22.171875 6.320312 L 21.476562 6.320312 L 21.476562 2.6875 L 22.210938 2.6875 L 22.539062 4.425781 L 22.539062 2.6875 L 23.226562 2.6875 L 23.226562 6.320312 L 22.53125 6.320312 L 22.171875 4.503906 Z M 23.539062 6.320312 L 23.539062 2.6875 L 24.523438 2.6875 C 24.777344 2.6875 24.964844 2.761719 25.09375 2.902344 C 25.21875 3.046875 25.285156 3.261719 25.289062 3.542969 L 25.296875 5.242188 C 25.300781 5.601562 25.238281 5.871094 25.113281 6.050781 C 24.988281 6.230469 24.785156 6.320312 24.496094 6.320312 Z M 24.257812 5.679688 L 24.382812 5.679688 C 24.511719 5.679688 24.574219 5.613281 24.574219 5.484375 L 24.574219 3.609375 C 24.574219 3.527344 24.570312 3.46875 24.558594 3.425781 C 24.542969 3.386719 24.523438 3.359375 24.488281 3.34375 C 24.457031 3.328125 24.40625 3.324219 24.335938 3.324219 L 24.257812 3.324219 Z M 26.277344 6.320312 L 25.582031 6.320312 L 25.582031 2.6875 L 26.316406 2.6875 L 26.640625 4.425781 L 26.640625 2.6875 L 27.328125 2.6875 L 27.328125 6.320312 L 26.632812 6.320312 L 26.277344 4.503906 Z M 26.277344 6.320312 "/>
</g>
<g clip-path="url(#clip4)" clip-rule="nonzero">
<path style="fill-rule:nonzero;fill:rgb(59.215686%,59.215686%,55.294118%);fill-opacity:1;stroke-width:1;stroke-linecap:butt;stroke-linejoin:miter;stroke:rgb(100%,100%,100%);stroke-opacity:1;stroke-miterlimit:4;" d="M -0.00983889 63.767514 C -0.00983889 28.53776 28.558937 -0.000000000000003058 63.789996 -0.000000000000003058 C 99.021055 -0.000000000000003058 127.53337 28.53776 127.53337 63.767514 C 127.53337 98.997268 99.021055 127.535029 63.789996 127.535029 C 28.558937 127.535029 -0.00983889 98.997268 -0.00983889 63.767514 Z M 63.789996 122.834041 C 96.367433 122.834041 122.847188 96.397899 122.847188 63.767514 C 122.847188 31.13713 96.367433 4.700988 63.789996 4.700988 C 31.156098 4.700988 4.732804 31.13713 4.732804 63.767514 C 4.732804 96.397899 31.156098 122.834041 63.789996 122.834041 Z M 63.789996 122.834041 " transform="matrix(0.0691861,0,0,0.0706301,29.102243,0.000000000000000216)"/>
</g>
<g clip-path="url(#clip5)" clip-rule="nonzero">
<path style=" stroke:none;fill-rule:nonzero;fill:rgb(59.215686%,59.215686%,55.294118%);fill-opacity:1;" d="M 36.070312 3.203125 L 34.152344 4.179688 L 34.152344 3.203125 L 30.960938 3.203125 L 30.960938 5.808594 L 34.152344 5.808594 L 34.152344 4.832031 L 36.070312 5.808594 Z M 36.070312 3.203125 "/>
</g>
</g>
</svg>
